{
    "accessors": [
        {
            "bufferView": 0,
            "componentType": 5126,
            "count": 11253,
            "max": [
                42.5,
                47,
                39.5
            ],
            "min": [
                -42.5,
                17.5,
                -39.5
            ],
            "type": "VEC3"
        },
        {
            "bufferView": 1,
            "componentType": 5126,
            "count": 11253,
            "type": "VEC3"
        },
        {
            "bufferView": 2,
            "componentType": 5125,
            "count": 54648,
            "type": "SCALAR"
        },
        {
            "bufferView": 3,
            "componentType": 5126,
            "count": 7828,
            "max": [
                42.5,
                24.799999237060547,
                39.5
            ],
            "min": [
                -42.5,
                0,
                -39.5
            ],
            "type": "VEC3"
        },
        {
            "bufferView": 4,
            "componentType": 5126,
            "count": 7828,
            "type": "VEC3"
        },
        {
            "bufferView": 5,
            "componentType": 5125,
            "count": 39174,
            "type": "SCALAR"
        }
    ],
    "asset": {
        "generator": "Luxion KeyShot",
        "version": "2.0"
    },
    "bufferViews": [
        {
            "buffer": 0,
            "byteLength": 135036,
            "byteOffset": 0,
            "byteStride": 12
        },
        {
            "buffer": 0,
            "byteLength": 135036,
            "byteOffset": 135036,
            "byteStride": 12
        },
        {
            "buffer": 0,
            "byteLength": 218592,
            "byteOffset": 270072
        },
        {
            "buffer": 0,
            "byteLength": 93936,
            "byteOffset": 488664,
            "byteStride": 12
        },
        {
            "buffer": 0,
            "byteLength": 93936,
            "byteOffset": 582600,
            "byteStride": 12
        },
        {
            "buffer": 0,
            "byteLength": 156696,
            "byteOffset": 676536
        }
    ],
    "buffers": [
        {
            "byteLength": 833232,
            "uri": "CASING resources/CASING.bin"
        }
    ],
    "cameras": [
        {
            "name": "active",
            "perspective": {
                "aspectRatio": 1,
                "yfov": 0.6911154697478635,
                "zfar": 384.4692687988281,
                "znear": 274.9007873535156
            },
            "type": "perspective"
        }
    ],
    "materials": [
        {
            "doubleSided": true,
            "pbrMetallicRoughness": {
                "baseColorFactor": [
                    0.011764699593186378,
                    0.011764699593186378,
                    0.011764699593186378,
                    1
                ],
                "metallicFactor": 0,
                "roughnessFactor": 0.5750000029802322
            }
        },
        {
            "doubleSided": true,
            "pbrMetallicRoughness": {
                "baseColorFactor": [
                    0.011764699593186378,
                    0.011764699593186378,
                    0.011764699593186378,
                    1
                ],
                "metallicFactor": 0,
                "roughnessFactor": 0.5750000029802322
            }
        }
    ],
    "meshes": [
        {
            "name": "COVER-mesh",
            "primitives": [
                {
                    "attributes": {
                        "NORMAL": 1,
                        "POSITION": 0
                    },
                    "indices": 2,
                    "material": 0,
                    "mode": 4
                }
            ]
        },
        {
            "name": "COVER-mesh",
            "primitives": [
                {
                    "attributes": {
                        "NORMAL": 4,
                        "POSITION": 3
                    },
                    "indices": 5,
                    "material": 1,
                    "mode": 4
                }
            ]
        }
    ],
    "nodes": [
        {
            "camera": 0,
            "matrix": [
                0.7134507123965648,
                -1.7156289189301788e-07,
                -0.7007054289068222,
                0,
                -0.5438916090377682,
                0.6304794740997539,
                -0.5537847262105228,
                0,
                0.4417804777622223,
                0.7762058973312378,
                0.44981592893600464,
                0,
                152.6405792236328,
                277.4787902832031,
                144.7515869140625,
                1
            ],
            "name": "active"
        },
        {
            "mesh": 0,
            "name": "COVER"
        },
        {
            "children": [
                1
            ],
            "name": "COVER"
        },
        {
            "mesh": 1,
            "name": "COVER"
        },
        {
            "children": [
                3
            ],
            "name": "COVER"
        },
        {
            "children": [
                2,
                4
            ],
            "name": "COVER"
        },
        {
            "children": [
                5
            ],
            "name": "Default"
        }
    ],
    "scenes": [
        {
            "nodes": [
                0,
                6
            ]
        }
    ]
}
   